<?xml version="1.0" encoding="utf-8"?>
<!-- Generator: Adobe Illustrator 21.0.0, SVG Export Plug-In . SVG Version: 6.00 Build 0)  -->
<svg version="1.1" id="Layer_1" xmlns="http://www.w3.org/2000/svg" xmlns:xlink="http://www.w3.org/1999/xlink" x="0px" y="0px"
	 viewBox="0 0 595.3 259.9" style="enable-background:new 0 0 595.3 259.9;" xml:space="preserve">
<style type="text/css">
	.st0{display:none;fill:#FFFFFF;}
	.st1{fill:#1A174B;}
	.st2{display:none;fill:#1A174B;}
	.st3{fill:#F04F3B;}
	.st4{display:none;}
	.st5{display:inline;fill:#F04F3B;}
	.st6{display:inline;fill:#1A174B;}
</style>
<rect y="0" class="st0" width="595.3" height="259.9"/>
<path class="st1" d="M514.7,103.8v91.8h-18.2v-32c-2,2-4.9,3.9-8.5,5.3c-3.6,1.4-7.3,2-11.1,2c-4.8,0-9-0.9-12.9-2.7
	c-3.9-1.9-7.5-4.3-10.4-7.5c-2.9-3.1-5.3-6.8-6.8-11.1c-1.7-4.3-2.4-8.7-2.4-13.4c0-4.8,0.9-9.2,2.4-13.4c1.7-4.3,3.9-7.8,6.8-11.1
	c2.9-3.1,6.3-5.6,10.4-7.5c3.9-1.9,8.3-2.7,12.9-2.7c4.1,0,7.8,0.5,11.1,1.5c3.2,1,6.1,2.6,8.7,4.9l2.7-4.4h15.3V103.8z
	 M479.2,154.6c2.4,0,4.6-0.3,6.6-1.2c2-0.9,3.9-2,5.4-3.6c1.5-1.5,2.7-3.6,3.6-5.8c0.9-2.2,1.4-4.9,1.4-8c0-3.2-0.5-6-1.4-8.3
	c-0.9-2.2-2-4.1-3.6-5.4c-1.5-1.4-3.4-2.4-5.4-3.1c-2-0.7-4.3-1-6.6-1c-2.4,0-4.6,0.5-6.6,1.5c-2,1-3.9,2.2-5.4,3.9
	c-1.5,1.7-2.7,3.6-3.7,5.8c-0.9,2.2-1.4,4.6-1.4,7.1c0,2.6,0.5,4.9,1.4,7.1c0.9,2.2,2.2,4.1,3.7,5.8c1.5,1.7,3.4,2.9,5.4,3.9
	C474.6,154.3,476.8,154.6,479.2,154.6z"/>
<path class="st1" d="M595.3,102.9v65.6h-15.8l-1.9-7c-2.6,3.4-5.6,5.8-9.2,6.8c-3.6,1.2-7.3,1.7-11.2,1.7c-4.8,0-9-0.9-12.9-2.7
	s-7.3-4.3-10.2-7.5c-2.9-3.1-5.3-6.8-6.8-11.1c-1.7-4.3-2.4-8.7-2.4-13.4s0.9-9.2,2.4-13.4c1.7-4.3,3.9-7.8,6.8-11.1
	c2.9-3.1,6.3-5.6,10.2-7.5c3.9-1.9,8.2-2.7,12.9-2.7c4.3,0,8.2,0.7,11.7,2c3.6,1.4,6.5,3.4,8.7,6.3l1.9-6.5h15.8V102.9z
	 M576.9,135.9c0-3.4-0.5-6.3-1.4-8.7c-0.9-2.4-2.2-4.3-3.7-5.6c-1.5-1.5-3.4-2.6-5.4-3.2c-2-0.7-4.3-1-6.6-1c-2.4,0-4.6,0.5-6.6,1.5
	c-2,1-3.9,2.2-5.4,3.9c-1.5,1.7-2.9,3.6-3.7,5.8c-0.9,2.2-1.4,4.6-1.4,7.1s0.5,4.9,1.4,7.1c0.9,2.2,2,4.1,3.7,5.8
	c1.5,1.7,3.4,2.9,5.4,3.9s4.3,1.5,6.6,1.5c4.8,0,8.8-1.5,12.1-4.4C575.2,146.6,576.9,142.1,576.9,135.9z"/>
<path class="st2" d="M152.5,116.6c0,1.8-0.2,3.4-0.7,5s-1.2,3-2.1,4.4c-0.9,1.3-1.9,2.5-3.2,3.5c-1.2,1-2.6,1.8-4,2.5l18.3,23.4H147
	l-17.1-22.3h-5.3v22.3h-11.8v-55.2h23.8c2.2,0,4.2,0.4,6.2,1.3c1.9,0.9,3.6,2,5.1,3.5c1.4,1.5,2.6,3.2,3.4,5.2
	C152.1,112.2,152.5,114.3,152.5,116.6z M135.1,122.4c1.5,0,2.8-0.6,3.9-1.7c1.1-1.1,1.6-2.5,1.6-4.1s-0.5-2.9-1.6-4
	s-2.4-1.7-3.9-1.7h-10.5v11.4L135.1,122.4L135.1,122.4z"/>
<path class="st1" d="M89.8,101.9c4.9,0,9.5,1,13.4,3.1c4.1,2,7.5,4.6,10.5,7.8c2.9,3.2,5.1,7,6.8,11.1c1.5,4.3,2.4,8.5,2.4,12.9
	c0,2.7-0.3,5.4-1,8.5H75c1.7,3.1,4.3,5.6,7.5,7.7c3.2,2,6.8,3.1,10.5,3.1c3.7,0,7.1-0.3,10-0.9c2.9-0.7,5.6-1.4,8.2-2.4l6.1,11.2
	c-3.2,2.4-7,4.1-11.2,5.3c-4.3,1.2-8.7,1.9-13.4,1.9c-5.3,0-10-0.9-14.6-2.7c-4.6-1.9-8.5-4.3-11.7-7.3c-3.4-3.1-6-6.8-8-11.1
	c-1.9-4.3-2.9-8.7-2.9-13.4c0-4.8,0.9-9.2,2.7-13.3c1.7-4.3,4.3-7.8,7.3-11.1c3.1-3.1,6.8-5.6,10.9-7.5
	C80.4,102.8,85,101.9,89.8,101.9z M104.7,131c-1-3.7-2.9-6.8-5.6-9.2s-5.8-3.6-9.2-3.6c-3.6,0-6.8,1.2-9.5,3.6
	c-2.9,2.4-4.8,5.4-6,9.2H104.7z"/>
<path class="st1" d="M222.2,112.8c0.9-1.4,1.9-2.7,3.1-4.1c1.2-1.4,2.6-2.4,4.1-3.4s3.4-1.9,5.4-2.4c2-0.7,4.3-0.9,6.8-0.9
	c3.1,0,6.5,0.5,10.5,1.5l-1.7,16.3c-1-0.2-1.9-0.3-2.9-0.7c-0.9-0.2-1.7-0.3-2.7-0.5c-1-0.2-1.9-0.2-2.7-0.2c-2.9,0-5.4,0.3-7.8,1.2
	c-2.4,0.9-4.6,1.9-6.3,3.2c-1.7,1.4-3.2,3.1-4.3,5.1c-1,2-1.5,4.1-1.5,6.5v34.9H204v-65.6h16.5L222.2,112.8z"/>
<path class="st1" d="M18.2,112.8c0.9-1.4,1.9-2.7,3.1-4.1c1.2-1.4,2.6-2.4,4.1-3.4c1.5-1,3.4-1.9,5.4-2.4c2-0.7,4.3-0.9,6.8-0.9
	c3.1,0,6.5,0.5,10.5,1.5L46.4,120c-1-0.2-1.9-0.3-2.9-0.7c-0.9-0.2-1.7-0.3-2.7-0.5c-1-0.2-1.9-0.2-2.7-0.2c-2.9,0-5.4,0.3-7.8,1.2
	c-2.4,0.9-4.6,1.9-6.3,3.2c-1.7,1.4-3.2,3.1-4.3,5.1c-1,2-1.5,4.1-1.5,6.5v34.9H0v-65.6h16.5L18.2,112.8z"/>
<path class="st1" d="M300.3,103.8h18.4v65.6H303l-2.7-5.1c-2,1.5-4.6,2.7-7.1,3.6c-2.7,0.9-5.6,1.4-8.7,1.4c-2.4,0-5.1-0.3-8.2-1
	c-3.1-0.7-6-2-8.5-3.9c-2.7-1.9-4.9-4.6-6.6-8c-1.9-3.4-2.7-7.8-2.7-13.4v-39.1h18.2v38.4c0,2,0.3,3.7,1,5.1s1.5,2.6,2.7,3.4
	s2.4,1.5,3.7,1.9c1.4,0.3,2.9,0.5,4.4,0.5c1.2,0,2.4-0.2,3.7-0.5c1.4-0.3,2.7-1,3.9-1.9c1.2-0.9,2.2-2,3.1-3.4s1.2-3.1,1.2-5.1
	v-38.4H300.3z"/>
<rect x="423.9" y="74.6" transform="matrix(0.8672 -0.4979 0.4979 0.8672 21.1232 233.1373)" class="st3" width="47.6" height="4.8"/>
<rect x="338.5" y="73.8" transform="matrix(0.8672 -0.4979 0.4979 0.8672 10.2264 190.5011)" class="st3" width="47.6" height="4.6"/>
<rect x="402.4" y="53.3" transform="matrix(0.5395 -0.842 0.842 0.5395 121.5396 376.4454)" class="st3" width="5.1" height="47.6"/>
<path class="st1" d="M383.4,73.4c-2.2,0-4.3-0.9-5.8-2.4c-1.5-1.5-2.4-3.4-2.4-5.8c0-2.2,0.9-4.3,2.4-5.8c1.5-1.5,3.4-2.4,5.8-2.4
	c2.2,0,4.3,0.9,5.8,2.4c1.5,1.5,2.4,3.6,2.4,5.8c0,2.2-0.9,4.3-2.4,5.8C387.5,72.5,385.6,73.4,383.4,73.4z"/>
<path class="st1" d="M341.4,97.2c-2.2,0-4.3-0.9-5.8-2.4c-1.5-1.5-2.4-3.4-2.4-5.8c0-2.2,0.9-4.3,2.4-5.8c1.5-1.5,3.4-2.4,5.8-2.4
	c2.2,0,4.3,0.9,5.8,2.4c1.5,1.5,2.4,3.6,2.4,5.8s-0.9,4.3-2.4,5.8C345.5,96.3,343.6,97.2,341.4,97.2z"/>
<path class="st1" d="M425.6,97.2c-2.2,0-4.3-0.9-5.8-2.4c-1.5-1.5-2.4-3.4-2.4-5.8c0-2.2,0.9-4.3,2.4-5.8c1.5-1.5,3.4-2.4,5.8-2.4
	c2.2,0,4.3,0.9,5.8,2.4c1.5,1.5,2.4,3.6,2.4,5.8s-0.9,4.3-2.4,5.8C429.7,96.3,427.8,97.2,425.6,97.2z"/>
<polygon class="st1" points="463.4,56.7 484.6,55.7 473,73.7 "/>
<path class="st1" d="M350.4,169.4h-18.2V113c0-5.1,4.1-9.2,9.2-9.2l0,0c5.1,0,9.2,4.1,9.2,9.2v56.5H350.4z"/>
<path class="st1" d="M391.3,153.1c1.9,1.7,4.4,2.6,7.5,2.6c2.6,0,4.9-0.5,7.5-1.5v15.3c-2.2,0.7-4.6,1.4-7,1.7
	c-2.6,0.5-4.9,0.7-7.5,0.7c-2.9,0-5.4-0.3-8-1c-2.6-0.7-4.9-1.9-6.8-3.6c-2-1.7-3.6-4.1-4.8-6.8c-1.2-2.9-1.9-6.5-1.9-10.7v-29.6
	H361v-12.2l9.4-3.9V89.3h18V104H406v16.3h-17.7v25.8C388.4,149,389.4,151.4,391.3,153.1z"/>
<path class="st1" d="M434.8,169.4h-18.2V113c0-5.1,4.1-9.2,9.2-9.2l0,0c5.1,0,9.2,4.1,9.2,9.2v56.5H434.8z"/>
<g>
	<path class="st3" d="M152.4,152.9c-9.4-9.5-9.4-24.8,0-34c9.4-9.4,24.5-9.4,34,0l7-7.1c-13.3-13.1-34.9-13.1-48.1,0
		c-12.2,12.2-13.1,32-2.7,45.2l-3.4,3.4c-0.3-0.5-1-0.5-1.5,0l-24,24c-0.5,0.5-0.5,1.4,0,1.9l5.6,5.6c0.5,0.3,1,0.3,1.5,0l24.3-24.1
		c0.3-0.5,0.3-1,0-1.5l3.4-3.4c13.3,10.7,32.8,9.5,45.1-2.7c0,0-5.1-5.1-7-7C176.8,162.3,161.7,162.3,152.4,152.9z"/>
</g>
<path class="st3" d="M571.7,136.4c0,8.2-5.3,12.4-11.6,12.4c-6.3,0-11.6-5.4-11.6-12.4c0-6.8,5.3-12.4,11.6-12.4
	C566.4,124,571.7,127.8,571.7,136.4z"/>
<circle class="st3" cx="169.4" cy="136.6" r="12.6"/>
<g class="st4">
	<circle class="st5" cx="154.3" cy="125.3" r="3.8"/>
	<path class="st6" d="M166.2,101.9h-35.4c-5.8,0-10.6,4.8-10.6,10.6v35.4c0,5.8,4.8,10.6,10.6,10.6h35.4c5.8,0,10.6-4.8,10.6-10.6
		v-35.4C176.8,106.6,172,101.9,166.2,101.9z M146.7,117.1c-4.4,4.4-4.4,11.5,0,16c4.4,4.4,11.5,4.4,16,0c0.9,0.9,3.2,3.2,3.2,3.2
		c-5.7,5.7-14.8,6.2-21.1,1.2l-1.6,1.6c0.1,0.2,0.1,0.5,0,0.7l-11.3,11.3c-0.2,0.1-0.5,0.1-0.7,0l-2.6-2.6c-0.2-0.2-0.2-0.6,0-0.9
		l11.2-11.2c0.2-0.2,0.6-0.2,0.7,0l1.6-1.6c-4.9-6.2-4.5-15.5,1.2-21.2c6.2-6.1,16.3-6.1,22.6,0l-3.2,3.4
		C158.1,112.7,151,112.7,146.7,117.1z M161.7,125.3c0,4-3.3,7.3-7.3,7.3s-7.3-3.3-7.3-7.3s3.3-7.3,7.3-7.3S161.7,121.2,161.7,125.3z
		"/>
</g>
</svg>
